<svg width="28" height="28" viewBox="0 0 28 28" fill="none" xmlns="http://www.w3.org/2000/svg">
  <rect width="28" height="28" rx="6" fill="#5865F2"/>
  <path d="M19.5 20c-1.2-.5-2.3-.8-3.5-.8s-2.3.3-3.5.8c-.2 0-.3-.1-.4-.2-.7-1.1-1.3-2.2-1.7-3.4 0-.1 0-.2.1-.2.3-.2.6-.4.9-.5.1 0 .2 0 .3.1.7.5 1.5.8 2.3.8s1.6-.3 2.3-.8c.1-.1.2-.1.3-.1.3.1.6.3.9.5.1.1.1.2.1.2-.4 1.2-1 2.3-1.7 3.4-.1.1-.2.2-.4.2zM11.5 13.5c-.7 0-1.2-.6-1.2-1.2s.6-1.2 1.2-1.2 1.2.6 1.2 1.2-.5 1.2-1.2 1.2zm5 0c-.7 0-1.2-.6-1.2-1.2s.6-1.2 1.2-1.2 1.2.6 1.2 1.2-.5 1.2-1.2 1.2z" fill="#fff"/>
</svg> 