<svg width="28" height="28" viewBox="0 0 28 28" fill="none" xmlns="http://www.w3.org/2000/svg">
  <rect width="28" height="28" rx="6" fill="#fff"/>
  <g>
    <path d="M14 19.5c1.8 0 3.3-.6 4.4-1.7l-2.1-1.7c-.6.4-1.3.7-2.3.7-1.7 0-3.1-1.1-3.6-2.6H8.2v1.7C9.3 18.2 11.5 19.5 14 19.5z" fill="#34A853"/>
    <path d="M10.4 14.2c-.1-.4-.2-.8-.2-1.2s.1-.8.2-1.2v-1.7H8.2c-.4.8-.7 1.7-.7 2.9s.3 2.1.7 2.9l2.2-1.7z" fill="#FBBC05"/>
    <path d="M14 11.1c.9 0 1.6.3 2.1.7l1.6-1.6C16.9 9.2 15.8 8.7 14 8.7c-2.5 0-4.7 1.3-5.8 3.3l2.2 1.7c.5-1.5 1.9-2.6 3.6-2.6z" fill="#EA4335"/>
    <path d="M14 11.1c-.9 0-1.7.3-2.3.7l-2.2-1.7C8.3 9.9 8 10.8 8 12s.3 2.1.7 2.9l2.2-1.7c.5-1.5 1.9-2.6 3.6-2.6z" fill="#4285F4"/>
  </g>
</svg> 